<svg>
    <symbol id="light" viewBox="0 0 24 24" xmlns="http://www.w3.org/2000/svg">
        <path d="M12 22C17.5228 22 22 17.5228 22 12C22 11.5373 21.3065 11.4608 21.0672 11.8568C19.9289 13.7406 17.8615 15 15.5 15C11.9101 15 9 12.0899 9 8.5C9 6.13845 10.2594 4.07105 12.1432 2.93276C12.5392 2.69347 12.4627 2 12 2C6.47715 2 2 6.47715 2 12C2 17.5228 6.47715 22 12 22Z"/>
    </symbol>

    <symbol id="burger" viewBox="0 0 24 24" xmlns="http://www.w3.org/2000/svg">
        <path d="M5 12H20" stroke-width="2" stroke-linecap="round"/>
        <path d="M5 17H20" stroke-width="2" stroke-linecap="round"/>
        <path d="M5 7H20" stroke-width="2" stroke-linecap="round"/>
    </symbol>

    <symbol id="closeBurger" viewBox="0 0 24 24" xmlns="http://www.w3.org/2000/svg">
        <path d="M20.7457 3.32851C20.3552 2.93798 19.722 2.93798 19.3315 3.32851L12.0371 10.6229L4.74275 3.32851C4.35223 2.93798 3.71906 2.93798 3.32854 3.32851C2.93801 3.71903 2.93801 4.3522 3.32854 4.74272L10.6229 12.0371L3.32856 19.3314C2.93803 19.722 2.93803 20.3551 3.32856 20.7457C3.71908 21.1362 4.35225 21.1362 4.74277 20.7457L12.0371 13.4513L19.3315 20.7457C19.722 21.1362 20.3552 21.1362 20.7457 20.7457C21.1362 20.3551 21.1362 19.722 20.7457 19.3315L13.4513 12.0371L20.7457 4.74272C21.1362 4.3522 21.1362 3.71903 20.7457 3.32851Z"/>
    </symbol>

    <symbol id="dark" viewBox="0 0 24 24" xmlns="http://www.w3.org/2000/svg">
        <path d="M7.28451 10.3333C7.10026 10.8546 7 11.4156 7 12C7 14.7614 9.23858 17 12 17C14.7614 17 17 14.7614 17 12C17 9.23858 14.7614 7 12 7C11.4156 7 10.8546 7.10026 10.3333 7.28451"
              stroke="#1C274C" stroke-width="1.5" stroke-linecap="round"/>
        <path d="M12 2V4" stroke="yellow" stroke-width="1.5" stroke-linecap="round"/>
        <path d="M12 20V22" stroke="yellow" stroke-width="1.5" stroke-linecap="round"/>
        <path d="M4 12L2 12" stroke="yellow" stroke-width="1.5" stroke-linecap="round"/>
        <path d="M22 12L20 12" stroke="yellow" stroke-width="1.5" stroke-linecap="round"/>
        <path d="M19.7778 4.22266L17.5558 6.25424" stroke="yellow" stroke-width="1.5" stroke-linecap="round"/>
        <path d="M4.22217 4.22266L6.44418 6.25424" stroke="yellow" stroke-width="1.5" stroke-linecap="round"/>
        <path d="M6.44434 17.5557L4.22211 19.7779" stroke="yellow" stroke-width="1.5" stroke-linecap="round"/>
        <path d="M19.7778 19.7773L17.5558 17.5551" stroke="yellow" stroke-width="1.5" stroke-linecap="round"/>
    </symbol>

    <symbol id="left" xmlns="http://www.w3.org/2000/svg" class="bi bi-chevron-left" viewBox="0 0 16 16">
        <path fill-rule="evenodd"
              d="M11.354 1.646a.5.5 0 0 1 0 .708L5.707 8l5.647 5.646a.5.5 0 0 1-.708.708l-6-6a.5.5 0 0 1 0-.708l6-6a.5.5 0 0 1 .708 0"/>
    </symbol>

    <symbol id="right" xmlns="http://www.w3.org/2000/svg" class="bi bi-chevron-right" viewBox="0 0 16 16">
        <path fill-rule="evenodd"
              d="M4.646 1.646a.5.5 0 0 1 .708 0l6 6a.5.5 0 0 1 0 .708l-6 6a.5.5 0 0 1-.708-.708L10.293 8 4.646 2.354a.5.5 0 0 1 0-.708"/>
    </symbol>

    <symbol id="study" viewBox="0 0 20 20" xmlns="http://www.w3.org/2000/svg">
        <rect x="0" fill="none" width="20" height="20"/>
        <g>
            <path d="M10 10L2.54 7.02 3 18H1l.48-11.41L0 6l10-4 10 4zm0-5c-.55 0-1 .22-1 .5s.45.5 1 .5 1-.22 1-.5-.45-.5-1-.5zm0 6l5.57-2.23c.71.94 1.2 2.07 1.36 3.3-.3-.04-.61-.07-.93-.07-2.55 0-4.78 1.37-6 3.41C8.78 13.37 6.55 12 4 12c-.32 0-.63.03-.93.07.16-1.23.65-2.36 1.36-3.3z"/>
        </g>
    </symbol>

    <symbol id="atom" viewBox="0 0 2050 2050" xmlns="http://www.w3.org/2000/svg">
        <defs>
            <style>
                .cls-1{fill:#de3226;}.cls-2{fill:#323150;}.cls-3{fill:#b11a31;}.cls-4{fill:#84b320;}.cls-5{fill:#f4c23f;}.cls-6{fill:#67baeb;}.cls-7{fill:#4b7d27;}.cls-8{fill:#f4a93f;}.cls-9{fill:#46a1f8;}.cls-10{fill:#bddd2a;}.cls-11{fill:#fad564;}.cls-12{fill:#83d0fb;}
            </style>
        </defs>
        <title/>
        <path class="cls-1"
              d="M1023.8,1183.8c-82.7,0-150.1-67.4-150.1-150.1s67.4-150.1,150.1-150.1,150.1,67.3,150.1,150.1S1106.6,1183.8,1023.8,1183.8Z"/>
        <path class="cls-2"
              d="M672.3,1843.4c-27.4,0-52.3-6.2-74.3-18.7-42.9-24.3-71-70-83.5-135.8-11.5-60.1-9.6-135.1,5.5-223,30.7-178.1,112.7-391,230.9-599.6s258.8-388.4,395.8-506.2c67.6-58.2,131-98.3,188.5-119.4,62.9-23,116.5-22.3,159.4,2s70.9,69.9,83.5,135.7c11.5,60.1,9.6,135.1-5.5,223-30.7,178.1-112.7,391.1-230.9,599.7s-258.8,388.3-395.8,506.2c-67.7,58.1-131.1,98.3-188.5,119.3Q711.5,1843.4,672.3,1843.4ZM1420.1,264c-21.3,0-45.1,4.8-71.2,14.3-52.9,19.4-112.2,57.1-176.1,112.1S1041.9,516.6,976.5,599.8C908.6,686.1,844.4,782.4,785.7,886s-108.3,208.1-147.5,310.8c-37.8,98.8-64.3,191.7-78.8,275.9s-16.2,153.4-5.6,208.7c10.2,53.7,31.7,90.2,63.9,108.5s74.6,17.9,125.9-.9c53-19.3,112.2-57.1,176.2-112.1s130.8-126.1,196.2-209.3c68-86.4,132.2-182.7,190.9-286.3s108.3-208.1,147.5-310.7c37.7-98.9,64.2-191.7,78.7-276s16.3-153.3,5.7-208.7c-10.2-53.7-31.8-90.2-64-108.4C1459,268.5,1440.7,264,1420.1,264Z"/>
        <path class="cls-2"
              d="M672.3,1843.4c-27.4,0-52.3-6.2-74.3-18.7-42.9-24.3-71-70-83.5-135.8-11.5-60.1-9.6-135.1,5.5-223,30.7-178.1,112.7-391,230.9-599.6s258.8-388.4,395.8-506.2c67.6-58.2,131-98.3,188.5-119.4,62.9-23,116.5-22.3,159.4,2s70.9,69.9,83.5,135.7c11.5,60.1,9.6,135.1-5.5,223-30.7,178.1-112.7,391.1-230.9,599.7s-258.8,388.3-395.8,506.2c-67.7,58.1-131.1,98.3-188.5,119.3Q711.5,1843.4,672.3,1843.4ZM1420.1,264c-21.3,0-45.1,4.8-71.2,14.3-52.9,19.4-112.2,57.1-176.1,112.1S1041.9,516.6,976.5,599.8C908.6,686.1,844.4,782.4,785.7,886s-108.3,208.1-147.5,310.8c-37.8,98.8-64.3,191.7-78.8,275.9s-16.2,153.4-5.6,208.7c10.2,53.7,31.7,90.2,63.9,108.5s74.6,17.9,125.9-.9c53-19.3,112.2-57.1,176.2-112.1s130.8-126.1,196.2-209.3c68-86.4,132.2-182.7,190.9-286.3s108.3-208.1,147.5-310.7c37.7-98.9,64.2-191.7,78.7-276s16.3-153.3,5.7-208.7c-10.2-53.7-31.8-90.2-64-108.4C1459,268.5,1440.7,264,1420.1,264Z"/>
        <path class="cls-2"
              d="M1430.2,1837.3q-37.8,0-82.4-15.4c-57.7-20.2-121.8-59.3-190.3-116.3-138.9-115.7-282.3-293.2-403.9-499.8S546.7,787.5,513.1,609.9C496.6,522.3,493.5,447.3,504,387c11.5-66,38.9-112.1,81.4-137.1s96.1-26.4,159.3-4.4c57.8,20.1,121.9,59.2,190.4,116.3,138.9,115.6,282.3,293.1,403.8,499.8s207,418.3,240.5,595.8c16.6,87.7,19.6,162.7,9.1,222.9-11.5,66-38.8,112.1-81.3,137.1Q1473.3,1837.4,1430.2,1837.3ZM662.5,270.1c-21.5,0-40.6,4.7-56.8,14.3-31.9,18.8-52.9,55.6-62.3,109.5-9.6,55.5-6.6,125.7,9.1,208.6s43.8,176.4,83.1,274.6c40.9,102,92.2,205.8,152.5,308.4s126.1,197.9,195.4,283.1c66.7,82.2,133.9,151.5,199.6,206.2s124.7,90.8,177.9,109.3,94,17.6,125.9-1.2,52.8-55.6,62.2-109.5c9.7-55.5,6.7-125.7-9-208.6s-43.8-176.4-83.2-274.6c-40.8-102-92.1-205.7-152.4-308.4S1178.4,684,1109.1,598.7c-66.8-82.1-133.9-151.5-199.6-206.2S784.8,301.8,731.6,283.3C706.3,274.5,683.2,270.1,662.5,270.1Z"/>
        <path class="cls-2"
              d="M1028.5,1373.2c-232.1,0-450.1-31.7-615.8-89.7-84.1-29.5-150.6-64.3-197.6-103.6-51.3-42.9-77.6-89.7-78-138.9s25.1-96.5,75.8-140.3c46.3-40,112.2-75.9,195.9-106.7,169.6-62.5,395-97.9,634.8-99.8s465.7,29.9,636.2,89.6c84.2,29.5,150.7,64.4,197.6,103.6,51.4,43,77.7,89.7,78.1,139s-25.1,96.4-75.8,140.2c-46.4,40-112.3,75.9-195.9,106.7-169.6,62.5-395,97.9-634.8,99.9Zm15.2-659,.2,20c-119.1.9-234.4,10.2-342.9,27.6C596.5,778.5,502.9,802,422.6,831.6S281.7,894.2,239.1,931s-62.3,72.6-62,109.6,21.7,73.6,63.7,108.6,105.5,68.7,185.2,96.5S600.6,1296,705.4,1311c108.7,15.7,224.3,23.1,343.3,22.2s234.4-10.3,342.9-27.7c104.5-16.7,198.1-40.2,278.3-69.7s141-62.6,183.6-99.5,62.3-72.6,62-109.6-21.8-73.5-63.7-108.6-105.6-68.6-185.2-96.5-174.7-50.2-279.4-65.3c-108.8-15.6-224.3-23.1-343.3-22.1Z"/>
        <path class="cls-3" d="M1023.8,957.2a76.5,76.5,0,1,0,76.5,76.5A76.5,76.5,0,0,0,1023.8,957.2Z"/>
        <circle class="cls-4" cx="1488.1" cy="254.2" r="83.6"/>
        <circle class="cls-5" cx="1494.5" cy="1795.8" r="83.6"/>
        <circle class="cls-6" cx="178.1" cy="1019.5" r="83.6"/>
        <path class="cls-7"
              d="M1512.7,313a83.6,83.6,0,0,1-70.1-129,83.6,83.6,0,1,0,115.6,115.6A83.2,83.2,0,0,1,1512.7,313Z"/>
        <path class="cls-8"
              d="M1519.2,1854.7a83.5,83.5,0,0,1-70.1-129,83.6,83.6,0,1,0,115.5,115.6A83.1,83.1,0,0,1,1519.2,1854.7Z"/>
        <path class="cls-9"
              d="M202.8,1078.4a83.6,83.6,0,0,1-70.2-129,83.6,83.6,0,1,0,115.6,115.5A83.2,83.2,0,0,1,202.8,1078.4Z"/>
        <circle class="cls-10" cx="1528.9" cy="232.1" r="39.7"/>
        <circle class="cls-11" cx="1530.6" cy="1765.8" r="41.6"/>
        <circle class="cls-12" cx="207.6" cy="975.8" r="35.1"/>
    </symbol>

    <symbol id="plane" viewBox="0 0 76 76" xmlns="http://www.w3.org/2000/svg"
            version="1.1" baseProfile="full" enable-background="new 0 0 76.00 76.00" xml:space="preserve">
	    <path fill="#191970" fill-opacity="1" stroke-width="0.2" stroke-linejoin="round"
              d="M 55.4764,22.0625L 55.4134,22.1254C 55.4134,22.1254 57.5889,22.6373 48.2065,33.0244L 49.4015,39.3332L 49.8155,38.9192C 50.4338,38.3009 51.4363,38.3009 52.0546,38.9192C 52.673,39.5375 52.673,40.5401 52.0546,41.1584L 50.0536,43.1594L 50.5017,46.0701L 50.6551,45.9166C 51.2735,45.2983 52.276,45.2983 52.8943,45.9166C 53.5126,46.535 53.5126,47.5375 52.8943,48.1558L 51.0175,50.0326C 51.384,53.2996 51.5253,56.1205 51.2149,57.6723C 51.2149,57.6723 49.2557,59.6315 48.1361,58.512C 48.1361,58.512 44.343,45.6154 41.7525,39.8052C 31.7557,49.9687 31.0624,49.2754 31.0624,49.2754C 31.0624,49.2754 33.0217,55.713 30.7825,57.9522L 26.8639,50.6749L 26.9269,50.6119L 19.6496,46.6933C 21.8888,44.4541 28.3264,46.4134 28.3264,46.4134C 28.3264,46.4134 27.6331,45.7201 37.7966,35.7233C 31.9864,33.1328 19.0898,29.3397 19.0898,29.3397C 17.9702,28.2202 19.9295,26.2609 19.9295,26.2609C 21.4813,25.9505 24.3022,26.0919 27.5692,26.4583L 29.446,24.5815C 30.0643,23.9632 31.0668,23.9632 31.6852,24.5815C 32.3035,25.1998 32.3035,26.2023 31.6852,26.8207L 31.5317,26.9742L 34.4423,27.4222L 36.4434,25.4212C 37.0617,24.8028 38.0642,24.8028 38.6826,25.4212C 39.3009,26.0395 39.3009,27.042 38.6826,27.6604L 38.2686,28.0743L 44.5774,29.2693C 54.9645,19.8869 55.4764,22.0625 55.4764,22.0625 Z "/>
    </symbol>

    <symbol id="swim" viewBox="0 0 512 512" xmlns="http://www.w3.org/2000/svg">
        <path fill="#87CEEB"
              d="M28.334 73.395L27.974 119h44.253l.148-45.605zm83.064.607c-7 .032-14.026.5-21.029 1.4l-.06 18.18c40.373-5.803 82.33 5.102 112.847 28.281l10.887-14.334c-27.458-20.855-62.35-32.725-98.164-33.49a172.654 172.654 0 0 0-4.48-.037zm182.721 32.02c-8.56 22.911 4.684 28.188 14.328 35.248l-7.5 51.3c1.08 7.522 1.672 14.562 2.36 21.457-7.269-4.985-14.018-9.728-18.674-13.877-.644-21.422 8.355-45.777 1.724-68.054-13.897-4.587-21.546-7.33-43.546-16.684 8.24 24.369 13.955 26.664 28.718 29.164l-6.95 60.942c9.1 18.207 32.447 49.43 50.673 65.214 18.678 43.592 31.576 56.112 49.193 62.983 3.4 14.3 6.46 29.642 11.608 44.896l.674 1.998 1.492 1.49c14.814 14.805 38.777 29.985 56.79 37.44l6.886-16.633c-14.438-5.975-37.014-20.381-49.432-32.222-3.336-10.341-5.814-21.198-8.361-32.16a29.633 29.633 0 0 1-4.725-7.946c-5.63-13.976-.36-29.567 10.701-40.59-13.457-12.178-27.926-22.877-42.35-39.601-2.485-16.536-17.426-36.454-26.36-54.069 5.127-23.106 2.262-36.998 5.825-59.966-16.51-14.444-18.797-14.39-33.074-30.33zM27.832 137l-.363 46h44.549l.15-46zm-.504 64l-.363 46H71.81l.148-46zm-.506 64l-.361 46H71.6l.151-46zm396.76 28.938a24.27 24.27 0 0 0-1.453.01c-3.57.132-7.471 1.054-11.469 2.964-12.792 6.114-18.085 18.304-15.027 25.897 3.058 7.593 14.875 11.606 27.668 5.492 12.792-6.114 18.085-18.304 15.027-25.896-1.971-4.894-7.581-8.3-14.746-8.467zM26.318 329l-.363 46h45.44l.148-46zm371.293 18.672c5.194 6.91 10.885 13.322 16.545 19.076l.545.557.635.453c17.912 12.812 26.401 17.004 43.035 23.888l6.883-16.63c-16.076-6.654-22.055-9.52-38.734-21.407a172.842 172.842 0 0 1-5.08-5.443c-8.24 2.171-16.601 2-23.829-.494zM25.814 393l-.363 46h45.735l.15-46zm228.002 45.928c-22.528.281-44.042 31.567-61.816 32.072-24.52-5.482-41.618-31.482-64-32-14.4 1.853-27.028 6.58-38.857 13.041l-.07 21.596C101.832 465.304 116.295 457.37 128 457c24.52 5.482 41.618 31.482 64 32 23.32 1.84 45.652-31.478 64-32 24.52 5.482 41.618 31.482 64 32 23.32 1.84 45.652-31.478 64-32 24.52 5.482 41.618 31.482 64 32 17.604-1.708 33.913-9.867 47-18.18v-21.53c-12.258 7.892-33.21 21.274-47 21.71-24.52-5.482-41.618-31.482-64-32-23.32-1.84-45.652 31.478-64 32-24.52-5.482-41.618-31.482-64-32a23.976 23.976 0 0 0-2.184-.072zM25.31 457l-.237 30H71.03l.098-30z"/>
    </symbol>
    <symbol id="walk" version="1.2" baseProfile="tiny" xmlns="http://www.w3.org/2000/svg"
            viewBox="-351 153 256 256" xml:space="preserve">
        <g>
	    <circle cx="-227" cy="177.1" r="20.8"/>
            <path d="M-150.7,385.3l-28-39.9l-6-47.1c0-0.6-0.1-1.3-0.2-1.9c0-0.2-0.1-0.5-0.2-0.7l-11.5-65.6l14.8,10.4l6.5,36.7
		c1,5.7,6.4,9.4,12.1,8.4s9.4-6.4,8.4-12.1l-7.3-40.9c-0.5-2.8-2.1-5.2-4.3-6.7l-25.5-17.8c-6.5-5.1-14.9-7.7-23.7-6.4l-17,3
		c-10.4,2.3-18.5,9.6-22.2,18.9l-9,24.6l-31.4,14.6l-4.9-31.7l-3.5,0.5l5.1,32.8c-4.5,2.7-6.3,8.5-4.1,13.3c1.4,3,4.1,5,7.1,5.7
		l18.8,121.6l3.5-0.5l-18.6-120.9c1-0.1,2.1-0.4,3.1-0.9l37.7-17.5c2.6-1.2,4.5-3.3,5.3-5.9l8.1-22.2l9.4,53l-27.6,44
		c-1.1,1.5-1.8,3.2-2.1,5.2l-9,51.1c-1.3,7,3.5,13.8,10.6,15.1s13.8-3.5,15.1-10.6l8.4-48l21.5-27.6l7.6,33.2c0.3,1.8,1,3.6,2.1,5.2
		l29.8,42.5c4.2,5.9,12.2,7.3,18,3.2C-148,399.2-146.6,391.2-150.7,385.3z"/>
        </g>
    </symbol>

    <symbol id="game" viewBox="-12.95 0 101.843 101.843" xmlns="http://www.w3.org/2000/svg">
        <path id="Path_32" data-name="Path 32"
              d="M511.607,374.247v-2.722a7.176,7.176,0,0,0-7.161-7.164h-1.435c-5.443-7.848-6.731-18.493-6.713-26.125,0-1.768.065-3.364.154-4.726H497.9a6.264,6.264,0,0,0,6-6.474,6.918,6.918,0,0,0-.536-2.648h2.194a2,2,0,0,0,1.96-1.6l5.422-26.848a2,2,0,0,0-1.96-2.4H496.528a2,2,0,0,0-1.956,1.58l-2.416,11.241h-3.439l0-10.821a2,2,0,0,0-2-2h-14.2a2,2,0,0,0-2,2v10.821h-3.012l-2.414-11.241a2,2,0,0,0-1.954-1.58H448.682a2,2,0,0,0-1.96,2.4l5.419,26.848a2,2,0,0,0,1.961,1.6H456.3a6.9,6.9,0,0,0-.535,2.648,6.261,6.261,0,0,0,6,6.474h1.449c.089,1.366.156,2.95.155,4.721.018,7.632-1.268,18.28-6.712,26.13h-1.432a7.176,7.176,0,0,0-7.162,7.164v2.722a7.173,7.173,0,0,0-6.2,7.088v12.046a2,2,0,0,0,2,2H515.8a2,2,0,0,0,2-2V381.335A7.174,7.174,0,0,0,511.607,374.247Zm-55.87-53.859-4.611-22.848h10.4l2.414,11.241a2,2,0,0,0,1.957,1.58h6.626a2,2,0,0,0,2-2V297.54h10.2v10.821a2,2,0,0,0,2,2h7.056a2,2,0,0,0,1.953-1.58l2.416-11.241h10.4l-4.613,22.848ZM513.8,391.382H445.861V381.335a3.2,3.2,0,0,1,3.165-3.164h1.014l.02,0,.019,0h30.2a2,2,0,1,0,0-4H452.059v-2.647a3.191,3.191,0,0,1,3.163-3.163h9.248a2,2,0,0,0,0-4h-3.09c4.954-8.585,5.972-18.761,5.988-26.13,0-1.749-.061-3.341-.146-4.721h12.76a2,2,0,1,0,0-4h-18.22a1.784,1.784,0,0,1-1.339-.644,2.864,2.864,0,0,1,0-3.663,1.788,1.788,0,0,1,1.339-.644H497.9a1.788,1.788,0,0,1,1.339.644,2.865,2.865,0,0,1,0,3.663,1.787,1.787,0,0,1-1.339.644H490.1a2,2,0,1,0,0,4h2.347c-.085,1.381-.145,2.975-.145,4.726.016,7.368,1.034,17.542,5.985,26.125H474.991a2,2,0,1,0,0,4h29.455a3.193,3.193,0,0,1,3.163,3.163v2.647h-7.956a2,2,0,1,0,0,4h9.937l.019,0,.02,0h1.012a3.2,3.2,0,0,1,3.162,3.164Zm-23.882-17.21h-1.765a2,2,0,0,0,0,4h1.765a2,2,0,1,0,0-4Z"
              transform="translate(-441.861 -293.54)"/>
    </symbol>

    <symbol id="ball" viewBox="0 0 76 76" xmlns="http://www.w3.org/2000/svg"
            version="1.1" baseProfile="full" enable-background="new 0 0 76.00 76.00" xml:space="preserve">
	    <path fill="#000000" fill-opacity="1" stroke-width="0.2" stroke-linejoin="round"
              d="M 43.5,21.0285L 48.6842,25.394L 50.3689,24.9228C 48.4338,23.092 46.0926,21.6859 43.4946,20.854L 43.5,21.0285 Z M 53.6014,39.3315L 52.5714,45.5285L 53.8558,46.5275C 55.221,43.9944 55.9969,41.0968 56,38.0182L 53.6014,39.3315 Z M 43.8214,48.7596L 38.3871,44.894L 32.1728,47.2255L 30.6427,53.6725L 32.5593,55.1631C 34.2758,55.7068 36.1036,56 38,56C 39.7036,56 41.3519,55.7633 42.9138,55.3211L 43.8214,48.7596 Z M 29.5413,53.4566L 31.0714,47.0096L 25.3871,42.644L 21.0897,44.182C 22.5587,48.1994 25.4186,51.5469 29.0863,53.6415L 29.5413,53.4566 Z M 25.5413,41.5626L 26.3214,34.1156L 21.5554,30.6696C 20.5557,32.9087 20,35.3894 20,38C 20,39.8384 20.2756,41.6124 20.7877,43.2829L 25.5413,41.5626 Z M 27.0056,33.644L 33.22,31.0625L 34.5,24.3656L 30.7276,21.5296C 26.8969,23.2235 23.768,26.2146 21.898,29.946L 27.0056,33.644 Z M 51.7199,45.2066L 52.7499,39.0096L 46.8157,34.394L 40.3514,36.7255L 39.3214,44.1725L 44.7556,48.038L 51.7199,45.2066 Z M 46.4699,33.4566L 47.4999,26.0096L 42.3157,21.6441L 35.3514,24.4755L 34.0714,31.1725L 40.0056,35.788L 46.4699,33.4566 Z M 38,18C 49.0457,18 58,26.9543 58,38C 58,49.0457 49.0457,58 38,58C 26.9543,58 18,49.0457 18,38C 18,26.9543 26.9543,18 38,18 Z "/>
    </symbol>
    <symbol fill="#4169E1" version="1.1" id="present"
            xmlns="http://www.w3.org/2000/svg"
            viewBox="0 0 459.397 459.397" xml:space="preserve">
<g id="XMLID_932_">
	<path id="XMLID_939_" d="M443.13,15.549H252.053c-5.581,0-10.105,4.524-10.105,10.105v72.36l19.744-29.267
		c0.151-0.224,0.311-0.437,0.467-0.656V35.759h170.866v237.614H262.158v-90.671c-2.831,2.484-4.516,5.395-10.241,8.95
		c-11.44,16.958-9.191,13.642-9.969,14.733v77.093c0,5.581,4.525,10.105,10.105,10.105h47.739l-27.99,70.757
		c-2.976,7.524,0.71,16.035,8.234,19.011c7.523,2.977,16.033-0.711,19.011-8.234l32.253-81.535h32.582l32.253,81.535
		c2.277,5.755,7.792,9.265,13.626,9.265c1.793,0,3.617-0.332,5.384-1.031c7.524-2.976,11.211-11.487,8.234-19.011l-27.99-70.757
		h47.739c5.581,0,10.105-4.524,10.105-10.105V25.654C453.235,20.073,448.71,15.549,443.13,15.549z"/>
    <path id="XMLID_947_" d="M266.297,134.198l28.904-42.845c3.121-4.626,1.901-10.907-2.726-14.029
		c-4.625-3.12-10.907-1.901-14.029,2.726l-28.779,42.66C256.034,124.841,261.839,128.737,266.297,134.198z"/>
    <circle id="XMLID_949_" cx="99.079" cy="37.811" r="37.811"/>
    <path id="XMLID_950_" d="M253.566,147.68c-5.314-8.559-16.562-11.193-25.123-5.876l-36.95,22.942
		c-0.061-12.088-0.108-21.527-0.172-34.113c-0.118-23.687-19.486-42.958-43.174-42.958c-53.253,0-53.857,0-98.137,0
		c-23.688,0-43.055,19.271-43.174,42.957L6.163,264.665C6.112,274.74,14.239,282.95,24.315,283c0.031,0,0.062,0,0.094,0
		c10.033,0,18.191-8.108,18.242-18.153l0.674-134.033c0-0.001,0-0.001,0-0.002c0.01-1.995,1.634-3.606,3.629-3.6
		c1.995,0.005,3.609,1.625,3.61,3.62l0.008,306.671c0,12.091,9.801,21.893,21.893,21.893s21.893-9.801,21.893-21.893V267.239
		c0-2.61,2.116-4.726,4.726-4.726c2.61,0,4.726,2.116,4.726,4.726v170.266c0,12.091,9.802,21.893,21.893,21.893
		s21.893-9.801,21.893-21.893c-0.439-293.783-0.401-255.025-0.397-306.624c0-2.096,1.69-3.8,3.786-3.818s3.815,1.657,3.85,3.754
		c0-0.001,0,0,0,0c0.089,17.757,0.281,55.836,0.335,66.722c0.072,14.238,15.772,22.919,27.867,15.408l64.654-40.142
		C256.25,167.488,258.881,156.24,253.566,147.68z"/>
</g>
</symbol>

    <symbol id="upButton" xmlns="http://www.w3.org/2000/svg" fill="blue"
            class="bi bi-arrow-up-circle-fill" viewBox="0 0 16 16">
        <path d="M16 8A8 8 0 1 0 0 8a8 8 0 0 0 16 0m-7.5 3.5a.5.5 0 0 1-1 0V5.707L5.354 7.854a.5.5 0 1 1-.708-.708l3-3a.5.5 0 0 1 .708 0l3 3a.5.5 0 0 1-.708.708L8.5 5.707z"/>
    </symbol>

</svg>

